<svg version="1.0" viewBox="0 0 358.000000 141.000000">
                        <g transform="translate(0.000000,141.000000) scale(0.100000,-0.100000)" fill="#000000"
                            stroke="none">
                            <path d="M535 1238 c-186 -205 -340 -447 -394 -622 -29 -93 -29 -215 0 -292
                        57 -151 221 -235 430 -220 97 7 252 42 355 81 84 31 2484 1089 2480 1093 -2 1
                        -534 -142 -1182 -319 -649 -176 -1212 -327 -1252 -335 -220 -42 -388 13 -460
                        150 -23 44 -26 63 -26 141 0 101 14 159 74 296 21 49 36 89 35 89 -2 0 -29
                        -28 -60 -62z" />
                        </g>
</svg>